<?xml version="1.0"?>
<svg xmlns="http://www.w3.org/2000/svg" xmlns:xlink="http://www.w3.org/1999/xlink" xmlns:svgjs="http://svgjs.com/svgjs" version="1.1" width="512" height="512" x="0" y="0" viewBox="0 0 512 512" style="enable-background:new 0 0 512 512" xml:space="preserve" class=""><g><path xmlns="http://www.w3.org/2000/svg" d="m512 424.101562-167.277344-424.101562-94.671875 35.378906v-18.246094h-250.050781v455.890626h250.050781v-337.890626l132.984375 337.164063zm-112 10.074219-10.03125-25.4375 73.136719-27.476562 10.082031 25.566406zm-.976562-215.375 53.15625 134.765625-73.136719 27.476563-53.066407-134.539063zm-83.96875.007813-40.074219-101.597656 73.046875-27.703126 40.074218 101.597657zm12.703124-180.691406 9.347657 23.695312-73.046875 27.703125-9.488282-24.046875zm-108.535156 8.78125-3.464844 1.296874 4.523438 11.464844v13.039063h-80.371094v-25.800781zm-109.082031 204.132812v131.746094h-80.371094v-131.746094zm-80.371094-29.765625v-118.796875h80.371094v118.792969h-80.371094zm110.140625 29.765625h80.371094v131.746094h-80.371094zm0-29.765625v-118.796875h80.371094v118.792969h-80.371094zm-29.769531-174.367187v25.800781h-80.371094v-25.800781zm-80.371094 396.359374v-30.710937h80.371094v30.710937zm110.140625 0v-30.710937h80.371094v30.710937zm0 0" fill="#ffffff" data-original="#000000" style="" class=""/><path xmlns="http://www.w3.org/2000/svg" d="m69.445312 124.296875c-14.027343 0-23.824218 14.5-23.824218 35.261719 0 20.761718 9.796875 35.257812 23.824218 35.257812 14.03125 0 23.828126-14.496094 23.828126-35.257812 0-20.761719-9.796876-35.261719-23.828126-35.261719zm0 0" fill="#ffffff" data-original="#000000" style="" class=""/><path xmlns="http://www.w3.org/2000/svg" d="m180.09375 124.296875c-14.027344 0-23.824219 14.5-23.824219 35.261719 0 20.761718 9.796875 35.257812 23.824219 35.257812s23.828125-14.496094 23.828125-35.257812c0-20.761719-9.796875-35.261719-23.828125-35.261719zm0 0" fill="#ffffff" data-original="#000000" style="" class=""/><path xmlns="http://www.w3.org/2000/svg" d="m342.777344 128.082031c-10.265625-10.460937-20.15625-8.257812-23.929688-6.828125-3.773437 1.429688-12.632812 6.339844-13.382812 20.980469-.320313 6.296875.925781 13.367187 3.609375 20.4375 2.683593 7.074219 6.433593 13.191406 10.851562 17.691406 6.277344 6.394531 12.410157 8.058594 17.09375 8.058594 2.976563 0 5.367188-.675781 6.835938-1.230469 3.773437-1.429687 12.632812-6.339844 13.382812-20.980468.320313-6.296876-.925781-13.363282-3.609375-20.4375-2.679687-7.074219-6.433594-13.1875-10.851562-17.691407zm0 0" fill="#ffffff" data-original="#000000" style="" class=""/></g></svg>
